<svg width="56" height="56" viewBox="0 0 56 56" fill="none" xmlns="http://www.w3.org/2000/svg">
<path d="M29 17.5C29 16.9477 28.5523 16.5 28 16.5C27.4477 16.5 27 16.9477 27 17.5H29ZM27 38.5C27 39.0523 27.4477 39.5 28 39.5C28.5523 39.5 29 39.0523 29 38.5H27ZM38.5 29C39.0523 29 39.5 28.5523 39.5 28C39.5 27.4477 39.0523 27 38.5 27V29ZM17.5 27C16.9477 27 16.5 27.4477 16.5 28C16.5 28.5523 16.9477 29 17.5 29V27ZM48 28C48 39.0457 39.0457 48 28 48V50C40.1503 50 50 40.1503 50 28H48ZM28 48C16.9543 48 8 39.0457 8 28H6C6 40.1503 15.8497 50 28 50V48ZM8 28C8 16.9543 16.9543 8 28 8V6C15.8497 6 6 15.8497 6 28H8ZM28 8C39.0457 8 48 16.9543 48 28H50C50 15.8497 40.1503 6 28 6V8ZM27 17.5L27 28H29L29 17.5H27ZM27 28V38.5H29V28H27ZM38.5 27H28V29H38.5V27ZM28 27H17.5V29H28V27Z" fill="#37BA58"/>
</svg>
