<svg width="176" height="55" viewBox="0 0 176 55" fill="none" xmlns="http://www.w3.org/2000/svg">
<g clip-path="url(#clip0_34_242)">
<rect x="0.5" y="0.5" width="175" height="54" rx="7.5" fill="#EB8A4E" stroke="#EDC392"/>
<path d="M56.0215 20.2969H66.5586V21.8984H57.8379V27.3184H65.6211V28.8809H57.8379V34.8574H66.8223V36.498H56.0215V20.2969ZM71.7051 24.7012V26.8203C72.304 26.0391 72.9941 25.4466 73.7754 25.043C74.498 24.6654 75.2305 24.4766 75.9727 24.4766C76.9492 24.4766 77.7858 24.7174 78.4824 25.1992C79.5371 25.9349 80.0645 27.2142 80.0645 29.0371V36.498H78.248V29.2617C78.248 27.1263 77.4115 26.0586 75.7383 26.0586C75.0938 26.0586 74.4688 26.2409 73.8633 26.6055C72.9518 27.1393 72.252 27.9368 71.7637 28.998V36.498H69.9277V24.7012H71.7051ZM86.832 21.0781V24.7012H90.4844V26.0977H86.832V33.4414C86.832 34.0013 86.8809 34.4017 86.9785 34.6426C87.1478 35.0658 87.4896 35.2773 88.0039 35.2773C88.681 35.2773 89.3613 35.043 90.0449 34.5742L90.5527 35.873C89.6868 36.4525 88.7396 36.7422 87.7109 36.7422C85.9401 36.7422 85.0547 35.7201 85.0547 33.6758V26.0977H82.2715V24.7012H85.0547V22.0156L86.832 21.0781ZM94.9668 27.9629H95.0449C95.8717 25.5996 97.151 24.418 98.8828 24.418C99.4232 24.418 99.9245 24.5254 100.387 24.7402L99.8203 26.4199C99.4818 26.2702 99.0846 26.1953 98.6289 26.1953C96.9753 26.1953 95.8132 27.5755 95.1426 30.3359V36.498H93.3066V24.7012H95.0645L94.9668 27.9629ZM109.791 29.0371V28.6562C109.791 27.7188 109.534 27.0189 109.02 26.5566C108.551 26.1335 107.828 25.9219 106.852 25.9219C105.419 25.9219 104.104 26.3809 102.906 27.2988L102.105 26C103.499 24.9453 105.09 24.418 106.881 24.418C108.508 24.418 109.736 24.8574 110.562 25.7363C111.246 26.4655 111.588 27.4681 111.588 28.7441V32.9824C111.588 34.4798 111.822 35.6517 112.291 36.498H110.533C110.279 35.9577 110.09 35.2643 109.967 34.418H109.908C109.537 35.082 108.99 35.6484 108.268 36.1172C107.532 36.599 106.624 36.8398 105.543 36.8398C104.417 36.8398 103.482 36.5078 102.74 35.8438C101.959 35.1406 101.568 34.2454 101.568 33.1582C101.568 31.8561 102.138 30.8405 103.277 30.1113C104.404 29.3952 106.119 29.0371 108.424 29.0371H109.791ZM109.791 30.4238H108.531C105.146 30.4238 103.453 31.3288 103.453 33.1387C103.453 33.7246 103.635 34.2129 104 34.6035C104.443 35.0658 105.051 35.2969 105.826 35.2969C106.829 35.2969 107.708 34.9779 108.463 34.3398C109.348 33.5977 109.791 32.7188 109.791 31.7031V30.4238ZM116.979 27.9629H117.057C117.883 25.5996 119.163 24.418 120.895 24.418C121.435 24.418 121.936 24.5254 122.398 24.7402L121.832 26.4199C121.493 26.2702 121.096 26.1953 120.641 26.1953C118.987 26.1953 117.825 27.5755 117.154 30.3359V36.498H115.318V24.7012H117.076L116.979 27.9629Z" fill="black"/>
</g>
<defs>
<clipPath id="clip0_34_242">
<rect width="176" height="55" fill="white"/>
</clipPath>
</defs>
</svg>
