<svg width="175" height="175" viewBox="0 0 175 175" fill="none" xmlns="http://www.w3.org/2000/svg">
<g clip-path="url(#clip0_42_9391)">
<path fill-rule="evenodd" clip-rule="evenodd" d="M22.2008 0.952881C16.5656 0.952881 11.1612 3.19146 7.17653 7.17616C3.19183 11.1609 0.953247 16.5652 0.953247 22.2005V40.0093C0.953247 45.1871 5.15058 49.3843 10.3282 49.3843C15.506 49.3843 19.7032 45.1871 19.7032 40.0093V22.2005C19.7032 21.5381 19.9663 20.9028 20.4348 20.4345C20.9032 19.966 21.5385 19.7028 22.2008 19.7028H40.0097C45.1875 19.7028 49.3847 15.5056 49.3847 10.3279C49.3847 5.15021 45.1875 0.952881 40.0097 0.952881H22.2008ZM49.9482 34.3198C41.3187 34.3198 34.3232 41.3155 34.3232 49.9448V75.8568C34.3232 84.4863 41.3187 91.4818 49.9482 91.4818H75.8602C84.4896 91.4818 91.4852 84.4863 91.4852 75.8568V49.9448C91.4852 41.3153 84.4896 34.3198 75.8602 34.3198H49.9482ZM53.0732 72.7318V53.0698H72.7352V72.7318H53.0732ZM125.616 10.3288C125.616 5.15117 129.814 0.953835 134.991 0.953835H152.8C158.435 0.953835 163.84 3.19242 167.825 7.17711C171.809 11.1618 174.047 16.5662 174.047 22.2015V40.0103C174.047 45.188 169.85 49.3853 164.672 49.3853C159.495 49.3853 155.297 45.188 155.297 40.0103V22.2015C155.297 21.539 155.035 20.9037 154.566 20.4353C154.097 19.967 153.462 19.7038 152.8 19.7038H134.991C129.814 19.7038 125.616 15.5065 125.616 10.3288ZM19.704 134.991C19.704 129.814 15.5067 125.616 10.329 125.616C5.15134 125.616 0.954011 129.814 0.954011 134.991V152.8C0.954011 158.435 3.19259 163.84 7.17729 167.825C11.162 171.809 16.5663 174.047 22.2016 174.047H40.0105C45.1882 174.047 49.3855 169.85 49.3855 164.672C49.3855 159.495 45.1882 155.297 40.0105 155.297H22.2016C21.5392 155.297 20.904 155.035 20.4356 154.566C19.9672 154.097 19.704 153.462 19.704 152.8V134.991ZM164.672 125.616C169.85 125.616 174.047 129.814 174.047 134.991V152.8C174.047 158.435 171.809 163.84 167.825 167.825C163.84 171.809 158.435 174.047 152.8 174.047H134.991C129.814 174.047 125.616 169.85 125.616 164.672C125.616 159.495 129.814 155.297 134.991 155.297H152.8C153.462 155.297 154.097 155.035 154.566 154.566C155.035 154.097 155.297 153.462 155.297 152.8V134.991C155.297 129.814 159.495 125.616 164.672 125.616ZM53.0738 114.876C53.0738 109.699 48.8765 105.501 43.6988 105.501C38.5212 105.501 34.3238 109.699 34.3238 114.876V131.302C34.3238 136.48 38.5212 140.677 43.6988 140.677H60.125C65.3026 140.677 69.5 136.48 69.5 131.302C69.5 126.125 65.3026 121.928 60.125 121.928H53.0738V114.876ZM71.3245 114.876C71.3245 109.699 75.5218 105.501 80.6995 105.501H87.4997C92.6775 105.501 96.8747 109.699 96.8747 114.876V131.302C96.8747 136.48 92.6775 140.677 87.4997 140.677C82.3221 140.677 78.1247 136.48 78.1247 131.302V123.894C74.199 122.775 71.3245 119.161 71.3245 114.876ZM124.252 43.6958C124.252 38.5181 120.055 34.3208 114.877 34.3208C109.699 34.3208 105.502 38.5181 105.502 43.6958V60.122C105.502 65.2996 109.699 69.497 114.877 69.497H131.302C136.481 69.497 140.677 65.2996 140.677 60.122C140.677 54.9442 136.481 50.747 131.302 50.747H124.252V43.6958ZM105.502 87.4997C105.502 82.3221 109.699 78.1247 114.877 78.1247H131.302C136.481 78.1247 140.677 82.3221 140.677 87.4997V95.4873C140.677 100.665 136.481 104.862 131.302 104.862C126.596 104.862 122.7 101.394 122.03 96.8747H114.877C109.699 96.8747 105.502 92.6775 105.502 87.4997ZM124.252 114.876C124.252 109.699 120.055 105.501 114.877 105.501C109.699 105.501 105.502 109.699 105.502 114.876V131.302C105.502 136.48 109.699 140.677 114.877 140.677H131.302C136.481 140.677 140.677 136.48 140.677 131.302C140.677 126.125 136.481 121.928 131.302 121.928H124.252V114.876Z" fill="black"/>
</g>
<defs>
<clipPath id="clip0_42_9391">
<rect width="175" height="175" fill="white"/>
</clipPath>
</defs>
</svg>
