<svg width="54" height="54" viewBox="0 0 54 54" fill="none" xmlns="http://www.w3.org/2000/svg">
<path d="M2.25 9.00001V22.5M2.25 22.5H15.75M2.25 22.5L12.69 12.69C15.7971 9.5882 19.828 7.58019 24.1755 6.96852C28.523 6.35685 32.9516 7.17466 36.7939 9.29873C40.6362 11.4228 43.6841 14.7381 45.4784 18.745C47.2727 22.7519 47.7162 27.2334 46.742 31.5143C45.7678 35.7952 43.4288 39.6435 40.0773 42.4795C36.7258 45.3154 32.5434 46.9853 28.1604 47.2376C23.7773 47.4898 19.4309 46.3108 15.7762 43.8781C12.1215 41.4454 9.35639 37.8909 7.8975 33.75" stroke="#1E1E1E" stroke-width="4" stroke-linecap="round" stroke-linejoin="round"/>
</svg>
