<svg width="196" height="186" viewBox="0 0 196 186" fill="none" xmlns="http://www.w3.org/2000/svg">
<g clip-path="url(#clip0_34_244)">
<rect width="196" height="186" rx="93" fill="#EADDFF"/>
<path fill-rule="evenodd" clip-rule="evenodd" d="M127.401 74.4C127.401 89.8087 114.238 102.3 98.0012 102.3C81.764 102.3 68.6012 89.8087 68.6012 74.4C68.6012 58.9913 81.764 46.5 98.0012 46.5C114.238 46.5 127.401 58.9913 127.401 74.4ZM117.601 74.4C117.601 84.6725 108.826 93 98.0012 93C87.1764 93 78.4012 84.6725 78.4012 74.4C78.4012 64.1275 87.1764 55.8 98.0012 55.8C108.826 55.8 117.601 64.1275 117.601 74.4Z" fill="#4F378A"/>
<path d="M98.0012 116.25C66.2767 116.25 39.2466 134.052 28.9502 158.993C31.4585 161.357 34.1008 163.592 36.8653 165.689C44.5325 142.791 68.5851 125.55 98.0012 125.55C127.417 125.55 151.47 142.791 159.137 165.689C161.902 163.592 164.544 161.357 167.052 158.993C156.756 134.052 129.726 116.25 98.0012 116.25Z" fill="#4F378A"/>
<path d="M98 2.5C150.868 2.5 193.5 43.14 193.5 93C193.5 142.86 150.868 183.5 98 183.5C45.1318 183.5 2.5 142.86 2.5 93C2.5 43.14 45.1318 2.5 98 2.5Z" stroke="#EB8A4E" stroke-width="5"/>
</g>
<defs>
<clipPath id="clip0_34_244">
<rect width="196" height="186" fill="white"/>
</clipPath>
</defs>
</svg>
